<?xml version="1.0" encoding="UTF-8" ?>
<svg xmlns="http://www.w3.org/2000/svg" xmlns:xlink="http://www.w3.org/1999/xlink" width="880pt" height="206pt" viewBox="0.00 0.00 880.00 205.80">
<g id="graph0" class="graph" transform="scale(1 1) rotate(0) translate(4 201.8)">
<title>G</title>
<polygon fill="#ffffff" stroke="transparent" points="-4,4 -4,-201.8 876.0007,-201.8 876.0007,4 -4,4"/>
<!-- redis -->
<g id="node1" class="node">
<title>redis</title>
<ellipse fill="none" stroke="#000000" cx="29.8057" cy="-179.8" rx="29.6127" ry="18"/>
<text text-anchor="middle" x="29.8057" y="-175.6" font-family="Times,serif" font-size="14.00" fill="#000000">redis</text>
</g>
<!-- dataland -->
<g id="node2" class="node">
<title>dataland</title>
<ellipse fill="none" stroke="#000000" cx="424.8057" cy="-106.8" rx="44.0002" ry="18"/>
<text text-anchor="middle" x="424.8057" y="-102.6" font-family="Times,serif" font-size="14.00" fill="#000000">dataland</text>
</g>
<!-- redis&#45;&gt;dataland -->
<g id="edge1" class="edge">
<title>redis-&gt;dataland</title>
<path fill="none" stroke="#000000" d="M52.285,-167.8445C57.2873,-165.5564 62.6413,-163.3841 67.8057,-161.8 172.5207,-129.6811 300.5276,-115.7877 371.3004,-110.2014"/>
<polygon fill="#000000" stroke="#000000" points="371.613,-113.6878 381.3174,-109.4363 371.0799,-106.7082 371.613,-113.6878"/>
</g>
<!-- dashboard -->
<g id="node12" class="node">
<title>dashboard</title>
<ellipse fill="none" stroke="#000000" cx="424.8057" cy="-18" rx="50.9464" ry="18"/>
<text text-anchor="middle" x="424.8057" y="-13.8" font-family="Times,serif" font-size="14.00" fill="#000000">dashboard</text>
</g>
<!-- dataland&#45;&gt;dashboard -->
<g id="edge11" class="edge">
<title>dataland-&gt;dashboard</title>
<path fill="none" stroke="#000000" d="M424.8057,-88.4006C424.8057,-76.2949 424.8057,-60.2076 424.8057,-46.4674"/>
<polygon fill="#000000" stroke="#000000" points="428.3058,-46.072 424.8057,-36.072 421.3058,-46.0721 428.3058,-46.072"/>
<text text-anchor="middle" x="507.3238" y="-58.2" font-family="Times,serif" font-size="14.00" fill="#000000">req/res | sub/pub  -&gt; dataSQL</text>
</g>
<!-- mysql -->
<g id="node3" class="node">
<title>mysql</title>
<ellipse fill="none" stroke="#000000" cx="111.8057" cy="-179.8" rx="34.7903" ry="18"/>
<text text-anchor="middle" x="111.8057" y="-175.6" font-family="Times,serif" font-size="14.00" fill="#000000">mysql</text>
</g>
<!-- mysql&#45;&gt;dataland -->
<g id="edge2" class="edge">
<title>mysql-&gt;dataland</title>
<path fill="none" stroke="#000000" d="M137.8842,-167.9281C143.3991,-165.6887 149.2368,-163.5147 154.8057,-161.8 229.1114,-138.9205 317.8934,-122.9239 372.8215,-114.2924"/>
<polygon fill="#000000" stroke="#000000" points="373.6602,-117.7043 383.0069,-112.7154 372.5891,-110.7867 373.6602,-117.7043"/>
</g>
<!-- mqtt -->
<g id="node4" class="node">
<title>mqtt</title>
<ellipse fill="none" stroke="#000000" cx="192.8057" cy="-179.8" rx="28.991" ry="18"/>
<text text-anchor="middle" x="192.8057" y="-175.6" font-family="Times,serif" font-size="14.00" fill="#000000">mqtt</text>
</g>
<!-- mqtt&#45;&gt;dataland -->
<g id="edge3" class="edge">
<title>mqtt-&gt;dataland</title>
<path fill="none" stroke="#000000" d="M215.448,-168.3228C220.4402,-166.0049 225.7488,-163.6995 230.8057,-161.8 279.4946,-143.5114 337.0096,-127.9263 376.7082,-118.0663"/>
<polygon fill="#000000" stroke="#000000" points="377.7763,-121.408 386.6527,-115.6235 376.1065,-114.6101 377.7763,-121.408"/>
</g>
<!-- clickhouse -->
<g id="node5" class="node">
<title>clickhouse</title>
<ellipse fill="none" stroke="#000000" cx="291.8057" cy="-179.8" rx="52.1675" ry="18"/>
<text text-anchor="middle" x="291.8057" y="-175.6" font-family="Times,serif" font-size="14.00" fill="#000000">clickhouse</text>
</g>
<!-- clickhouse&#45;&gt;dataland -->
<g id="edge4" class="edge">
<title>clickhouse-&gt;dataland</title>
<path fill="none" stroke="#000000" d="M319.6869,-164.4968C339.9486,-153.3758 367.53,-138.2371 389.3566,-126.257"/>
<polygon fill="#000000" stroke="#000000" points="391.2382,-129.2169 398.3204,-121.337 387.87,-123.0805 391.2382,-129.2169"/>
</g>
<!-- rest -->
<g id="node6" class="node">
<title>rest</title>
<ellipse fill="none" stroke="#000000" cx="388.8057" cy="-179.8" rx="27" ry="18"/>
<text text-anchor="middle" x="388.8057" y="-175.6" font-family="Times,serif" font-size="14.00" fill="#000000">rest</text>
</g>
<!-- rest&#45;&gt;dataland -->
<g id="edge5" class="edge">
<title>rest-&gt;dataland</title>
<path fill="none" stroke="#000000" d="M397.3372,-162.5C401.5789,-153.8989 406.8012,-143.3093 411.5493,-133.6812"/>
<polygon fill="#000000" stroke="#000000" points="414.8015,-134.9997 416.0854,-124.4829 408.5234,-131.9036 414.8015,-134.9997"/>
</g>
<!-- http -->
<g id="node7" class="node">
<title>http</title>
<ellipse fill="none" stroke="#000000" cx="460.8057" cy="-179.8" rx="27" ry="18"/>
<text text-anchor="middle" x="460.8057" y="-175.6" font-family="Times,serif" font-size="14.00" fill="#000000">http</text>
</g>
<!-- http&#45;&gt;dataland -->
<g id="edge6" class="edge">
<title>http-&gt;dataland</title>
<path fill="none" stroke="#000000" d="M452.2742,-162.5C448.0326,-153.8989 442.8103,-143.3093 438.0622,-133.6812"/>
<polygon fill="#000000" stroke="#000000" points="441.0881,-131.9036 433.5261,-124.4829 434.81,-134.9997 441.0881,-131.9036"/>
</g>
<!-- tcp -->
<g id="node8" class="node">
<title>tcp</title>
<ellipse fill="none" stroke="#000000" cx="532.8057" cy="-179.8" rx="27" ry="18"/>
<text text-anchor="middle" x="532.8057" y="-175.6" font-family="Times,serif" font-size="14.00" fill="#000000">tcp</text>
</g>
<!-- tcp&#45;&gt;dataland -->
<g id="edge7" class="edge">
<title>tcp-&gt;dataland</title>
<path fill="none" stroke="#000000" d="M513.7461,-166.9171C497.854,-156.1752 474.8862,-140.6507 456.2717,-128.0686"/>
<polygon fill="#000000" stroke="#000000" points="458.0456,-125.0432 447.8006,-122.3428 454.1256,-130.8426 458.0456,-125.0432"/>
</g>
<!-- udp -->
<g id="node9" class="node">
<title>udp</title>
<ellipse fill="none" stroke="#000000" cx="604.8057" cy="-179.8" rx="27" ry="18"/>
<text text-anchor="middle" x="604.8057" y="-175.6" font-family="Times,serif" font-size="14.00" fill="#000000">udp</text>
</g>
<!-- udp&#45;&gt;dataland -->
<g id="edge8" class="edge">
<title>udp-&gt;dataland</title>
<path fill="none" stroke="#000000" d="M583.2683,-168.5984C578.5443,-166.2634 573.5393,-163.8813 568.8057,-161.8 535.4962,-147.1541 496.9479,-132.5506 468.1224,-122.076"/>
<polygon fill="#000000" stroke="#000000" points="468.9507,-118.654 458.3564,-118.5499 466.5735,-125.238 468.9507,-118.654"/>
</g>
<!-- dataland_source -->
<g id="node10" class="node">
<title>dataland_source</title>
<ellipse fill="none" stroke="#000000" cx="723.8057" cy="-179.8" rx="73.5579" ry="18"/>
<text text-anchor="middle" x="723.8057" y="-175.6" font-family="Times,serif" font-size="14.00" fill="#000000">dataland_source</text>
</g>
<!-- dataland_source&#45;&gt;dataland -->
<g id="edge9" class="edge">
<title>dataland_source-&gt;dataland</title>
<path fill="none" stroke="#000000" d="M671.3818,-167.0008C615.0933,-153.2582 526.4582,-131.6182 472.195,-118.37"/>
<polygon fill="#000000" stroke="#000000" points="473.0233,-114.9694 462.4785,-115.9977 471.363,-121.7697 473.0233,-114.9694"/>
</g>
<!-- grpc -->
<g id="node11" class="node">
<title>grpc</title>
<ellipse fill="none" stroke="#000000" cx="843.8057" cy="-179.8" rx="28.3913" ry="18"/>
<text text-anchor="middle" x="843.8057" y="-175.6" font-family="Times,serif" font-size="14.00" fill="#000000">grpc</text>
</g>
<!-- grpc&#45;&gt;dataland -->
<g id="edge10" class="edge">
<title>grpc-&gt;dataland</title>
<path fill="none" stroke="#000000" d="M822.3499,-167.9806C817.365,-165.6272 811.9956,-163.3934 806.8057,-161.8 693.1731,-126.9122 553.5828,-113.9652 478.5823,-109.3039"/>
<polygon fill="#000000" stroke="#000000" points="478.6279,-105.8005 468.4375,-108.6998 478.2117,-112.7881 478.6279,-105.8005"/>
</g>
</g>
</svg>